<svg id="レイヤー_1" data-name="レイヤー 1" xmlns="http://www.w3.org/2000/svg" xmlns:xlink="http://www.w3.org/1999/xlink" viewBox="0 0 205.06 205.06"><defs><style>.cls-1{fill:#fff;}.cls-2{fill:url(#名称未設定グラデーション_9);}.cls-3{fill:url(#名称未設定グラデーション_20);}</style><linearGradient id="名称未設定グラデーション_9" x1="77.5" y1="77.5" x2="222.5" y2="222.5" gradientUnits="userSpaceOnUse"><stop offset="0" stop-color="#932aff"/><stop offset="1" stop-color="#2ecccd"/></linearGradient><linearGradient id="名称未設定グラデーション_20" x1="90.43" y1="146.41" x2="208.36" y2="146.41" gradientTransform="translate(0 6)" gradientUnits="userSpaceOnUse"><stop offset="0" stop-color="#932aff"/><stop offset="0.03" stop-color="#8e32fd"/><stop offset="0.2" stop-color="#7160ee"/><stop offset="0.36" stop-color="#5987e2"/><stop offset="0.53" stop-color="#46a5d9"/><stop offset="0.69" stop-color="#39bbd2"/><stop offset="0.85" stop-color="#31c8ce"/><stop offset="1" stop-color="#2ecccd"/></linearGradient></defs><title>coming_soon1</title><circle class="cls-1" cx="102.53" cy="102.53" r="102.53"/><path class="cls-2" d="M150,49.47A100.53,100.53,0,1,1,49.47,150,100.65,100.65,0,0,1,150,49.47m0-2A102.53,102.53,0,1,0,252.53,150,102.52,102.52,0,0,0,150,47.47Z" transform="translate(-47.47 -47.47)"/><path d="M105,133.7a12.34,12.34,0,0,1-5.28,1.11c-5.57,0-9.25-4-9.25-9.93s4-10.39,10-10.39a10.76,10.76,0,0,1,4.68,1l-.75,2.39a7.91,7.91,0,0,0-4-1c-4.5,0-6.85,3.61-6.85,7.79,0,4.71,2.82,7.67,6.75,7.67a9.74,9.74,0,0,0,4.21-1Z" transform="translate(-47.47 -47.47)"/><path d="M125.64,124.53c0,7.25-4.79,10.32-9.11,10.32-5,0-8.85-3.75-8.85-10,0-6.64,4.14-10.32,9.1-10.32C122.1,114.49,125.64,118.56,125.64,124.53Zm-9-7.72c-4.21,0-6,4.15-6,7.9,0,4.32,2.39,7.82,5.89,7.82s6-3.5,6-7.9C122.6,121.17,120.92,116.81,116.67,116.81Z" transform="translate(-47.47 -47.47)"/><path d="M156.63,134.42H153.7V123.17c0-3.78-1.36-6.21-4.29-6.21-2.39,0-4.57,2.25-4.57,5.21v12.25h-2.92v-12c0-3.11-1.33-5.46-4.08-5.46-2.53,0-4.78,2.5-4.78,5.53v11.93h-2.93V120c0-2-.07-3.43-.14-5h2.61l.17,3.14h.11a6.49,6.49,0,0,1,5.93-3.57,5.57,5.57,0,0,1,5.32,3.9h.07a6.83,6.83,0,0,1,6.25-3.9c2.39,0,6.18,1.54,6.18,8.22Z" transform="translate(-47.47 -47.47)"/><path d="M163.83,111.53a1.92,1.92,0,0,1-1.92-2,1.94,1.94,0,0,1,2-2,2,2,0,0,1,0,4Zm1.5,22.89h-3V115h3Z" transform="translate(-47.47 -47.47)"/><path d="M186.79,134.42h-3v-11.5c0-3.18-1.14-6-4.54-6a5.3,5.3,0,0,0-5.1,5.53v11.93h-3V120c0-2-.07-3.47-.14-5h2.64l.18,3.18H174a7,7,0,0,1,6.25-3.61c2.43,0,6.57,1.47,6.57,8.07Z" transform="translate(-47.47 -47.47)"/><path d="M208.36,114.92c-.11,1.4-.18,3-.18,5.36v11.35c0,3.39-.07,11.18-9.29,11.18a11.62,11.62,0,0,1-6.1-1.54l.78-2.32a10.73,10.73,0,0,0,5.47,1.47c3.57,0,6.17-1.9,6.17-7v-2.32h-.07a6.65,6.65,0,0,1-6,3.32c-4.64,0-8-4.1-8-9.57,0-6.75,4.21-10.32,8.42-10.32a6.26,6.26,0,0,1,5.89,3.36h.08l.14-2.93Zm-3.18,7.5a5.25,5.25,0,0,0-5.18-5.53c-3.43,0-5.82,3-5.82,7.74,0,4.15,2,7.4,5.78,7.4a5.33,5.33,0,0,0,5.22-5.72Z" transform="translate(-47.47 -47.47)"/><path d="M111.11,180.4a7,7,0,0,0-3.79-1.14c-2.14,0-3.28,1.32-3.28,2.89s1.1,2.46,3.6,3.53c3.14,1.29,5,2.93,5,5.86,0,3.46-2.64,5.75-6.89,5.75a10.36,10.36,0,0,1-5.1-1.32l.82-2.29a9.18,9.18,0,0,0,4.39,1.32c2.61,0,3.89-1.39,3.89-3.14s-1-2.82-3.6-3.85c-3.29-1.33-5-3.15-5-5.5,0-3,2.43-5.54,6.36-5.54a8.6,8.6,0,0,1,4.46,1.18Z" transform="translate(-47.47 -47.47)"/><path d="M133.67,187c0,7.24-4.79,10.32-9.11,10.32-5,0-8.85-3.75-8.85-10,0-6.64,4.14-10.32,9.1-10.32C130.13,177,133.67,181,133.67,187Zm-9-7.72c-4.22,0-6,4.15-6,7.89,0,4.32,2.4,7.82,5.9,7.82s6-3.5,6-7.89C130.63,183.65,129,179.29,124.71,179.29Z" transform="translate(-47.47 -47.47)"/><path d="M154.7,187c0,7.24-4.79,10.32-9.11,10.32-5,0-8.85-3.75-8.85-10,0-6.64,4.14-10.32,9.1-10.32C151.16,177,154.7,181,154.7,187Zm-9-7.72c-4.22,0-6,4.15-6,7.89,0,4.32,2.39,7.82,5.89,7.82s6-3.5,6-7.89C151.66,183.65,150,179.29,145.74,179.29Z" transform="translate(-47.47 -47.47)"/><path d="M174.76,196.9h-3V185.4c0-3.18-1.14-6-4.54-6a5.3,5.3,0,0,0-5.1,5.53V196.9h-3V182.44c0-2-.07-3.47-.14-5h2.64l.18,3.18h.07a7,7,0,0,1,6.25-3.61c2.43,0,6.57,1.47,6.57,8.07Z" transform="translate(-47.47 -47.47)"/><path d="M179.69,195.08a2.16,2.16,0,0,1,2.14-2.33,2.13,2.13,0,0,1,2.1,2.33,2.12,2.12,0,1,1-4.24,0Z" transform="translate(-47.47 -47.47)"/><path d="M187.47,195.08a2.16,2.16,0,0,1,2.14-2.33,2.13,2.13,0,0,1,2.11,2.33,2.13,2.13,0,1,1-4.25,0Z" transform="translate(-47.47 -47.47)"/><path d="M195.25,195.08a2.16,2.16,0,0,1,2.14-2.33,2.13,2.13,0,0,1,2.11,2.33,2.13,2.13,0,1,1-4.25,0Z" transform="translate(-47.47 -47.47)"/><path class="cls-3" d="M105,133.7a12.34,12.34,0,0,1-5.28,1.11c-5.57,0-9.25-4-9.25-9.93s4-10.39,10-10.39a10.76,10.76,0,0,1,4.68,1l-.75,2.39a7.91,7.91,0,0,0-4-1c-4.5,0-6.85,3.61-6.85,7.79,0,4.71,2.82,7.67,6.75,7.67a9.74,9.74,0,0,0,4.21-1Z" transform="translate(-47.47 -47.47)"/><path class="cls-3" d="M125.64,124.53c0,7.25-4.79,10.32-9.11,10.32-5,0-8.85-3.75-8.85-10,0-6.64,4.14-10.32,9.1-10.32C122.1,114.49,125.64,118.56,125.64,124.53Zm-9-7.72c-4.21,0-6,4.15-6,7.9,0,4.32,2.39,7.82,5.89,7.82s6-3.5,6-7.9C122.6,121.17,120.92,116.81,116.67,116.81Z" transform="translate(-47.47 -47.47)"/><path class="cls-3" d="M156.63,134.42H153.7V123.17c0-3.78-1.36-6.21-4.29-6.21-2.39,0-4.57,2.25-4.57,5.21v12.25h-2.92v-12c0-3.11-1.33-5.46-4.08-5.46-2.53,0-4.78,2.5-4.78,5.53v11.93h-2.93V120c0-2-.07-3.43-.14-5h2.61l.17,3.14h.11a6.49,6.49,0,0,1,5.93-3.57,5.57,5.57,0,0,1,5.32,3.9h.07a6.83,6.83,0,0,1,6.25-3.9c2.39,0,6.18,1.54,6.18,8.22Z" transform="translate(-47.47 -47.47)"/><path class="cls-3" d="M163.83,111.53a1.92,1.92,0,0,1-1.92-2,1.94,1.94,0,0,1,2-2,2,2,0,0,1,0,4Zm1.5,22.89h-3V115h3Z" transform="translate(-47.47 -47.47)"/><path class="cls-3" d="M186.79,134.42h-3v-11.5c0-3.18-1.14-6-4.54-6a5.3,5.3,0,0,0-5.1,5.53v11.93h-3V120c0-2-.07-3.47-.14-5h2.64l.18,3.18H174a7,7,0,0,1,6.25-3.61c2.43,0,6.57,1.47,6.57,8.07Z" transform="translate(-47.47 -47.47)"/><path class="cls-3" d="M208.36,114.92c-.11,1.4-.18,3-.18,5.36v11.35c0,3.39-.07,11.18-9.29,11.18a11.62,11.62,0,0,1-6.1-1.54l.78-2.32a10.73,10.73,0,0,0,5.47,1.47c3.57,0,6.17-1.9,6.17-7v-2.32h-.07a6.65,6.65,0,0,1-6,3.32c-4.64,0-8-4.1-8-9.57,0-6.75,4.21-10.32,8.42-10.32a6.26,6.26,0,0,1,5.89,3.36h.08l.14-2.93Zm-3.18,7.5a5.25,5.25,0,0,0-5.18-5.53c-3.43,0-5.82,3-5.82,7.74,0,4.15,2,7.4,5.78,7.4a5.33,5.33,0,0,0,5.22-5.72Z" transform="translate(-47.47 -47.47)"/><path class="cls-3" d="M111.11,180.4a7,7,0,0,0-3.79-1.14c-2.14,0-3.28,1.32-3.28,2.89s1.1,2.46,3.6,3.53c3.14,1.29,5,2.93,5,5.86,0,3.46-2.64,5.75-6.89,5.75a10.36,10.36,0,0,1-5.1-1.32l.82-2.29a9.18,9.18,0,0,0,4.39,1.32c2.61,0,3.89-1.39,3.89-3.14s-1-2.82-3.6-3.85c-3.29-1.33-5-3.15-5-5.5,0-3,2.43-5.54,6.36-5.54a8.6,8.6,0,0,1,4.46,1.18Z" transform="translate(-47.47 -47.47)"/><path class="cls-3" d="M133.67,187c0,7.24-4.79,10.32-9.11,10.32-5,0-8.85-3.75-8.85-10,0-6.64,4.14-10.32,9.1-10.32C130.13,177,133.67,181,133.67,187Zm-9-7.72c-4.22,0-6,4.15-6,7.89,0,4.32,2.4,7.82,5.9,7.82s6-3.5,6-7.89C130.63,183.65,129,179.29,124.71,179.29Z" transform="translate(-47.47 -47.47)"/><path class="cls-3" d="M154.7,187c0,7.24-4.79,10.32-9.11,10.32-5,0-8.85-3.75-8.85-10,0-6.64,4.14-10.32,9.1-10.32C151.16,177,154.7,181,154.7,187Zm-9-7.72c-4.22,0-6,4.15-6,7.89,0,4.32,2.39,7.82,5.89,7.82s6-3.5,6-7.89C151.66,183.65,150,179.29,145.74,179.29Z" transform="translate(-47.47 -47.47)"/><path class="cls-3" d="M174.76,196.9h-3V185.4c0-3.18-1.14-6-4.54-6a5.3,5.3,0,0,0-5.1,5.53V196.9h-3V182.44c0-2-.07-3.47-.14-5h2.64l.18,3.18h.07a7,7,0,0,1,6.25-3.61c2.43,0,6.57,1.47,6.57,8.07Z" transform="translate(-47.47 -47.47)"/><path class="cls-3" d="M179.69,195.08a2.16,2.16,0,0,1,2.14-2.33,2.13,2.13,0,0,1,2.1,2.33,2.12,2.12,0,1,1-4.24,0Z" transform="translate(-47.47 -47.47)"/><path class="cls-3" d="M187.47,195.08a2.16,2.16,0,0,1,2.14-2.33,2.13,2.13,0,0,1,2.11,2.33,2.13,2.13,0,1,1-4.25,0Z" transform="translate(-47.47 -47.47)"/><path class="cls-3" d="M195.25,195.08a2.16,2.16,0,0,1,2.14-2.33,2.13,2.13,0,0,1,2.11,2.33,2.13,2.13,0,1,1-4.25,0Z" transform="translate(-47.47 -47.47)"/></svg>